<?xml version="1.0" encoding="UTF-8" standalone="no"?><svg xmlns="http://www.w3.org/2000/svg" xmlns:xlink="http://www.w3.org/1999/xlink" contentStyleType="text/css" height="365px" preserveAspectRatio="none" style="width:301px;height:365px;background:#FFFFFF;" version="1.1" viewBox="0 0 301 365" width="301px" zoomAndPan="magnify"><defs/><g><!--MD5=[078f1673cc583e1678504a8d90d200ea]
cluster Tech Stack Diagram--><g id="cluster_Tech Stack Diagram"><path d="M8.5,6 L146.5,6 A3.75,3.75 0 0 1 149,8.5 L156,29.6094 L291.5,29.6094 A2.5,2.5 0 0 1 294,32.1094 L294,355.5 A2.5,2.5 0 0 1 291.5,358 L8.5,358 A2.5,2.5 0 0 1 6,355.5 L6,8.5 A2.5,2.5 0 0 1 8.5,6 " fill="none" style="stroke:#000000;stroke-width:1.5;"/><line style="stroke:#000000;stroke-width:1.5;" x1="6" x2="156" y1="29.6094" y2="29.6094"/><text fill="#000000" font-family="sans-serif" font-size="14" font-weight="bold" lengthAdjust="spacing" textLength="137" x="10" y="22.5332">Tech Stack Diagram</text></g><!--MD5=[22029b2902cbfefb11350e8ee6e306b3]
entity F--><g id="elem_F"><rect fill="#F1F1F1" height="47.6094" rx="2.5" ry="2.5" style="stroke:#181818;stroke-width:0.5;" width="98" x="173" y="42"/><rect fill="#F1F1F1" height="10" style="stroke:#181818;stroke-width:0.5;" width="15" x="251" y="47"/><rect fill="#F1F1F1" height="2" style="stroke:#181818;stroke-width:0.5;" width="4" x="249" y="49"/><rect fill="#F1F1F1" height="2" style="stroke:#181818;stroke-width:0.5;" width="4" x="249" y="53"/><text fill="#000000" font-family="sans-serif" font-size="14" lengthAdjust="spacing" textLength="58" x="188" y="76.5332">Frontend</text></g><!--MD5=[b2d39259b6aeabc16b394deeb0238426]
entity B--><g id="elem_B"><rect fill="#F1F1F1" height="47.6094" rx="2.5" ry="2.5" style="stroke:#181818;stroke-width:0.5;" width="95" x="22.5" y="168"/><rect fill="#F1F1F1" height="10" style="stroke:#181818;stroke-width:0.5;" width="15" x="97.5" y="173"/><rect fill="#F1F1F1" height="2" style="stroke:#181818;stroke-width:0.5;" width="4" x="95.5" y="175"/><rect fill="#F1F1F1" height="2" style="stroke:#181818;stroke-width:0.5;" width="4" x="95.5" y="179"/><text fill="#000000" font-family="sans-serif" font-size="14" lengthAdjust="spacing" textLength="55" x="37.5" y="202.5332">Backend</text></g><!--MD5=[f9ba5bf973e7832d2ce5ed59077b93f7]
entity DB--><g id="elem_DB"><rect fill="#F1F1F1" height="47.6094" rx="2.5" ry="2.5" style="stroke:#181818;stroke-width:0.5;" width="101" x="35.5" y="294"/><rect fill="#F1F1F1" height="10" style="stroke:#181818;stroke-width:0.5;" width="15" x="116.5" y="299"/><rect fill="#F1F1F1" height="2" style="stroke:#181818;stroke-width:0.5;" width="4" x="114.5" y="301"/><rect fill="#F1F1F1" height="2" style="stroke:#181818;stroke-width:0.5;" width="4" x="114.5" y="305"/><text fill="#000000" font-family="sans-serif" font-size="14" lengthAdjust="spacing" textLength="61" x="50.5" y="328.5332">Database</text></g><g id="elem_GMN7"><path d="M22.5,53 L22.5,79.3516 A0,0 0 0 0 22.5,79.3516 L137.5,79.3516 A0,0 0 0 0 137.5,79.3516 L137.5,71 L172.93,66 L137.5,63 L137.5,63 L127.5,53 L22.5,53 A0,0 0 0 0 22.5,53 " fill="#FEFFDD" style="stroke:#181818;stroke-width:0.5;"/><path d="M127.5,53 L127.5,63 L137.5,63 L127.5,53 " fill="#FEFFDD" style="stroke:#181818;stroke-width:0.5;"/><text fill="#000000" font-family="sans-serif" font-size="13" lengthAdjust="spacing" textLength="94" x="28.5" y="71.4951">Node.js + React</text></g><g id="elem_GMN10"><path d="M152.5,179 L152.5,188 L117.58,192 L152.5,196 L152.5,205.3516 A0,0 0 0 0 152.5,205.3516 L277.5,205.3516 A0,0 0 0 0 277.5,205.3516 L277.5,189 L267.5,179 L152.5,179 A0,0 0 0 0 152.5,179 " fill="#FEFFDD" style="stroke:#181818;stroke-width:0.5;"/><path d="M267.5,179 L267.5,189 L277.5,189 L267.5,179 " fill="#FEFFDD" style="stroke:#181818;stroke-width:0.5;"/><text fill="#000000" font-family="sans-serif" font-size="13" lengthAdjust="spacing" textLength="104" x="158.5" y="197.4951">Python + FastAPI</text></g><g id="elem_GMN13"><path d="M172,305 L172,314 L136.53,318 L172,322 L172,331.3516 A0,0 0 0 0 172,331.3516 L264,331.3516 A0,0 0 0 0 264,331.3516 L264,315 L254,305 L172,305 A0,0 0 0 0 172,305 " fill="#FEFFDD" style="stroke:#181818;stroke-width:0.5;"/><path d="M254,305 L254,315 L264,315 L254,305 " fill="#FEFFDD" style="stroke:#181818;stroke-width:0.5;"/><text fill="#000000" font-family="sans-serif" font-size="13" lengthAdjust="spacing" textLength="71" x="178" y="323.4951">PostgreSQL</text></g><!--MD5=[b2232ed023008429e727fac4ac84f0f4]
link F to B--><g id="link_F_B"><path d="M172.85,82.63 C151.69,91.17 127.79,103.43 110,120 C97.26,131.87 87.52,148.74 80.85,163.05 " fill="none" id="F-to-B" style="stroke:#181818;stroke-width:1.0;stroke-dasharray:7.0,7.0;"/><polygon fill="#181818" points="78.7,167.8,86.0657,161.2619,80.769,163.2482,78.7828,157.9515,78.7,167.8" style="stroke:#181818;stroke-width:1.0;"/><text fill="#000000" font-family="sans-serif" font-size="13" lengthAdjust="spacing" textLength="48" x="111" y="134.4951">Request</text></g><!--MD5=[2da0b8035371ea79faad2bfd2c32f4b5]
link B to F--><g id="link_B_F"><path d="M117.65,168.6 C133.23,160.15 150.1,149.7 164,138 C178.9,125.46 192.8,108.69 203.26,94.6 " fill="none" id="B-to-F" style="stroke:#181818;stroke-width:1.0;stroke-dasharray:7.0,7.0;"/><polygon fill="#181818" points="206.39,90.32,197.8399,95.2082,203.4313,94.3507,204.2889,99.9421,206.39,90.32" style="stroke:#181818;stroke-width:1.0;"/><text fill="#000000" font-family="sans-serif" font-size="13" lengthAdjust="spacing" textLength="58" x="183" y="134.4951">Response</text></g><!--MD5=[064969249558ea2f69c0ced94c58500e]
link DB to B--><g id="link_DB_B"><path d="M110.19,293.88 C121.43,280.25 130.93,262.5 124,246 C119.89,236.22 113,227.33 105.49,219.75 " fill="none" id="DB-to-B" style="stroke:#181818;stroke-width:1.0;stroke-dasharray:7.0,7.0;"/><polygon fill="#181818" points="101.76,216.13,105.4252,225.2715,105.3452,219.6152,111.0015,219.5352,101.76,216.13" style="stroke:#181818;stroke-width:1.0;"/><text fill="#000000" font-family="sans-serif" font-size="13" lengthAdjust="spacing" textLength="48" x="128" y="260.4951">Request</text></g><!--MD5=[3e1dcafe09a6a11f079e07afd50be75e]
link B to DB--><g id="link_B_DB"><path d="M60.14,216.19 C55.52,230.14 51.84,248.21 56,264 C58.27,272.64 62.31,281.34 66.71,289.13 " fill="none" id="B-to-DB" style="stroke:#181818;stroke-width:1.0;stroke-dasharray:7.0,7.0;"/><polygon fill="#181818" points="69.47,293.86,68.3701,284.0727,66.9418,289.5463,61.4682,288.1179,69.47,293.86" style="stroke:#181818;stroke-width:1.0;"/><text fill="#000000" font-family="sans-serif" font-size="13" lengthAdjust="spacing" textLength="58" x="57" y="260.4951">Response</text></g><!--MD5=[a08a998a389305cc2c608b92e1e3cff4]
@startuml component_diagram

package "Tech Stack Diagram" {
    [Frontend] as F
    [Backend] as B
    [Database] as DB

    note left of F
    Node.js + React
    end note

    note right of B
    Python + FastAPI
    end note

    note right of DB
    PostgreSQL
    end note

    F ..> B : Request
    B ..> F : Response
    DB ..> B : Request
    B ..> DB : Response
}
@enduml

PlantUML version 1.2022.7(Mon Aug 22 19:01:30 CEST 2022)
(GPL source distribution)
Java Runtime: OpenJDK Runtime Environment
JVM: OpenJDK 64-Bit Server VM
Default Encoding: UTF-8
Language: en
Country: US
--></g></svg>